<svg xmlns="http://www.w3.org/2000/svg" xmlns:xlink="http://www.w3.org/1999/xlink" width="326" zoomAndPan="magnify" viewBox="0 0 244.5 253.500006" height="338" preserveAspectRatio="xMidYMid meet" version="1.0"><defs><clipPath id="e36903fdf5"><path d="M 104.414062 119.640625 L 123.90625 119.640625 L 123.90625 139.132812 L 104.414062 139.132812 Z M 104.414062 119.640625 " clip-rule="nonzero"/></clipPath><clipPath id="4346f741ae"><path d="M 114.160156 119.640625 C 108.777344 119.640625 104.414062 124.003906 104.414062 129.386719 C 104.414062 134.769531 108.777344 139.132812 114.160156 139.132812 C 119.542969 139.132812 123.90625 134.769531 123.90625 129.386719 C 123.90625 124.003906 119.542969 119.640625 114.160156 119.640625 Z M 114.160156 119.640625 " clip-rule="nonzero"/></clipPath><clipPath id="409d693e02"><path d="M 0.414062 0.640625 L 19.90625 0.640625 L 19.90625 20.132812 L 0.414062 20.132812 Z M 0.414062 0.640625 " clip-rule="nonzero"/></clipPath><clipPath id="9d7cfe16cf"><path d="M 10.160156 0.640625 C 4.777344 0.640625 0.414062 5.003906 0.414062 10.386719 C 0.414062 15.769531 4.777344 20.132812 10.160156 20.132812 C 15.542969 20.132812 19.90625 15.769531 19.90625 10.386719 C 19.90625 5.003906 15.542969 0.640625 10.160156 0.640625 Z M 10.160156 0.640625 " clip-rule="nonzero"/></clipPath><clipPath id="eacc7896b0"><rect x="0" width="20" y="0" height="21"/></clipPath></defs><path fill="#f16e73" d="M 7.785156 149.597656 C 7.785156 149.597656 74.796875 213.421875 173.9375 164.828125 L 192.5 188.851562 C 192.5 188.851562 77.503906 252.757812 7.785156 178.21875 Z M 7.785156 149.597656 " fill-opacity="1" fill-rule="nonzero"/><path fill="#f16e73" d="M 130.597656 76.851562 C 130.597656 76.851562 201.628906 104.992188 214.058594 178.21875 L 232.925781 159.464844 C 232.925781 159.464844 215.660156 74.976562 159.699219 60.5625 Z M 130.597656 76.851562 " fill-opacity="1" fill-rule="nonzero"/><path fill="#f16e73" d="M 56.394531 144.007812 C 56.394531 144.007812 57.355469 47.078125 162.675781 27.089844 L 137.417969 9.679688 C 137.417969 9.679688 35.109375 24.347656 29.117188 131.722656 Z M 56.394531 144.007812 " fill-opacity="1" fill-rule="nonzero"/><path fill="#2e3359" d="M 237.859375 137.984375 L 237.859375 137.824219 C 228.777344 110.597656 214.859375 91.136719 199.820312 77.265625 C 204.351562 66.761719 206.882812 55.230469 200.15625 47.542969 C 198.996094 46.226562 197.65625 45.128906 196.136719 44.257812 L 146.726562 6.554688 L 146.566406 6.425781 C 137.675781 0.0195312 122.332031 4.058594 117.832031 5.449219 L 117.671875 5.449219 C 67.300781 22.234375 43.835938 55.613281 33.027344 80.726562 C 31.851562 83.429688 30.785156 86.097656 29.824219 88.734375 C 17.007812 91.1875 2.785156 96.039062 0.433594 107.730469 C 0.0898438 109.453125 0.0390625 111.179688 0.273438 112.917969 L 0.273438 175.238281 C 0.5625 186.195312 13.085938 195.933594 16.929688 198.65625 L 17.074219 198.75 C 23.101562 202.824219 29.402344 206.417969 35.972656 209.542969 C 42.542969 212.667969 49.3125 215.28125 56.277344 217.386719 C 63.238281 219.492188 70.324219 221.066406 77.523438 222.105469 C 84.722656 223.144531 91.960938 223.640625 99.238281 223.59375 C 101.207031 223.59375 103.210938 223.59375 105.195312 223.480469 C 122.15625 222.792969 138.648438 219.644531 154.667969 214.03125 C 161 218.121094 167.800781 221.152344 175.074219 223.128906 C 177.894531 223.945312 180.769531 224.378906 183.707031 224.425781 C 185.71875 224.476562 187.683594 224.199219 189.605469 223.59375 C 191.527344 222.992188 193.296875 222.09375 194.917969 220.902344 C 195.484375 220.464844 196.019531 219.988281 196.519531 219.476562 C 197.394531 218.5625 198.15625 217.5625 198.808594 216.480469 L 236.65625 166.925781 L 236.785156 166.765625 C 243.304688 157.828125 239.25 142.484375 237.859375 137.984375 Z M 175.875 59.808594 C 180.472656 58.207031 185.484375 57.664062 187.4375 58.207031 L 187.808594 58.496094 C 187.96875 59.265625 188.128906 61.539062 186.429688 66.503906 C 182.90625 64.015625 179.386719 61.785156 175.875 59.808594 Z M 122.75 21.050781 C 128.179688 19.449219 135.210938 18.726562 136.957031 19.65625 L 169.675781 44.660156 L 168.988281 44.914062 C 147.03125 52.25 128.289062 63.367188 113.363281 77.941406 C 106.941406 84.238281 101.238281 91.128906 96.257812 98.617188 C 89.484375 108.609375 86.105469 119.933594 83.667969 129.703125 C 82.628906 133.835938 81.84375 138.082031 81.089844 142.246094 C 73.535156 141.175781 66.144531 139.417969 58.914062 136.964844 C 51.6875 134.515625 44.75 131.417969 38.101562 127.671875 C 39.167969 113.398438 42.566406 99.707031 48.289062 86.589844 C 62.144531 54.957031 87.191406 32.902344 122.75 21.050781 Z M 107.46875 111.558594 C 120.398438 116.988281 132.144531 124.320312 142.707031 133.546875 C 135.554688 136.632812 128.175781 138.996094 120.566406 140.640625 C 112.957031 142.28125 105.257812 143.175781 97.476562 143.320312 C 98.050781 140.117188 98.691406 136.914062 99.492188 133.707031 C 101.195312 125.980469 103.851562 118.597656 107.46875 111.558594 Z M 24.648438 106.753906 C 23.753906 110.835938 23.128906 114.554688 22.679688 117.820312 C 20.183594 116.046875 18.175781 113.832031 16.65625 111.175781 L 16.65625 110.855469 C 17.183594 110.214844 19.074219 108.609375 24.632812 106.832031 Z M 26.394531 185.234375 C 21.78125 181.933594 16.992188 176.746094 16.65625 174.789062 L 16.65625 133.660156 L 17.28125 134.0625 C 45.46875 153.183594 72.488281 159.464844 95.839844 159.464844 C 106.097656 159.398438 116.222656 158.214844 126.21875 155.921875 C 136.214844 153.628906 145.84375 150.277344 155.101562 145.867188 C 165.316406 157.46875 173.371094 170.417969 179.269531 184.703125 C 129.058594 214.320312 69.574219 214.605469 26.378906 185.28125 Z M 174.496094 205.75 C 177.941406 204.070312 181.351562 202.289062 184.714844 200.382812 C 185.121094 202.15625 185.3125 203.949219 185.292969 205.765625 C 185.296875 206.390625 185.214844 207.003906 185.050781 207.609375 L 184.796875 207.960938 C 182.921875 208.128906 181.097656 207.902344 179.320312 207.289062 C 177.699219 206.902344 176.082031 206.390625 174.480469 205.796875 Z M 223.667969 157.0625 L 198.648438 189.8125 L 198.472656 189.285156 C 184.683594 147.929688 155.261719 115.019531 117.078125 97.914062 C 119.488281 95.027344 122.042969 92.273438 124.734375 89.648438 C 133.914062 80.804688 144.234375 73.597656 155.695312 68.027344 C 178.742188 77.90625 207.523438 98.808594 222.226562 142.902344 C 223.90625 148.332031 224.582031 155.363281 223.652344 157.109375 Z M 223.667969 157.0625 " fill-opacity="1" fill-rule="nonzero"/><g clip-path="url(#e36903fdf5)"><g clip-path="url(#4346f741ae)"><g transform="matrix(1, 0, 0, 1, 104, 119)"><g clip-path="url(#eacc7896b0)"><g clip-path="url(#409d693e02)"><g clip-path="url(#9d7cfe16cf)"><path fill="#fff3eb" d="M 0.414062 0.640625 L 19.90625 0.640625 L 19.90625 20.132812 L 0.414062 20.132812 Z M 0.414062 0.640625 " fill-opacity="1" fill-rule="nonzero"/></g></g></g></g></g></g></svg>